<?xml version="1.0" encoding="UTF-8"?>
<svg enable-background="new 0 0 3000 3000" version="1.1" viewBox="0 0 3e3 3e3" xmlns="http://www.w3.org/2000/svg">
 <style type="text/css">.st0{fill:#4AB349;} .st1{fill:#FFFFFF;} .st2{fill:#005295;} .st3{fill:#D1D3D4;}</style>
 <rect class="st0" width="3e3" height="3e3"/>
 <path class="st1" d="m2604 978.19h-2228v1043.6h2248v-1043.6h-19.99zm0 1023.6h-769.33v-481.81h769.33v481.81zm-799.34 0h-304.65v-1003.6h314.65v1003.6h-10zm-1408.6-521.81v-481.81h742.64v501.81h-742.64v-20zm0 40h742.64v481.81h-742.64v-481.81zm762.64 481.81v-1003.6h321.35v1003.6h-321.35zm1445.3-521.81v20h-769.33v-501.81h769.33v481.81z"/>
 <rect class="st2" x="396.01" y="1520" width="742.64" height="481.81"/>
 <rect class="st2" x="1834.6" y="1520" width="769.33" height="481.81"/>
 <polygon class="st2" points="396.01 1480 396.01 1490 396.01 1500 1138.6 1500 1138.6 1500 1138.6 1490 1138.6 1480 1138.6 998.19 396.01 998.19"/>
 <polygon class="st2" points="1834.6 1480 1834.6 1490 1834.6 1500 1834.6 1500 2604 1500 2604 1490 2604 1480 2604 998.19 1834.6 998.19"/>
 <polygon class="st2" points="1168.6 998.19 1158.6 998.19 1158.6 998.19 1158.6 1480 1158.6 1490 1158.6 1500 1158.6 1500 1158.6 1510 1158.6 1520 1158.6 2001.8 1158.6 2001.8 1168.6 2001.8 1178.6 2001.8 1480 2001.8 1480 1500 1480 998.19 1178.6 998.19"/>
 <polygon class="st2" points="1794.6 998.19 1520 998.19 1510 998.19 1500 998.19 1500 1500 1500 2001.8 1510 2001.8 1520 2001.8 1794.6 2001.8 1804.6 2001.8 1814.6 2001.8 1814.6 1520 1814.6 1510 1814.6 1500 1814.6 1500 1814.6 1490 1814.6 1480 1814.6 998.19 1814.6 998.19 1804.6 998.19"/>
 <path d="m1526.4 878.68v-2.16l-62.99-95.97v2.02l-0.63-0.96v1477.3l0.63-0.85v2.46l62.99-85.31v-2.16l0.63-0.85v-1292.6l-0.63-0.96zm-2.63 563.7v36.89l-7.28-1.35v-37.51l7.28 1.97zm-10.54-2.86v37.8l-9.35-1.73v-38.6l9.35 2.53zm-12.61-3.42v38.88l-9.35-1.73v-39.69l9.35 2.54zm-12.62-3.42v39.97l-9.35-1.73v-40.77l9.35 2.53zm-12.61-3.42v41.05l-9.35-1.73v-41.86l9.35 2.54zm12.61-43.25v39.92l-9.35-2.62v-40.72l9.35 3.42zm-12.61-4.63v41l-9.35-2.62v-41.81l9.35 3.43zm0-47.87v40.93l-9.35-3.52v-41.74l9.35 4.33zm41.1 56.4v-37.4l7.28 3.36v36.77l-7.28-2.73zm-37.84-14.24v-40.65l9.35 4.32v39.85l-9.35-3.52zm12.61 4.75v-39.57l9.35 4.32v38.76l-9.35-3.51zm12.62 4.75v-38.48l9.35 4.32v37.68l-9.35-3.52zm12.61 48.75v-37.46l7.28 2.67v36.84l-7.28-2.05zm-25.23-7.08v-39.64l9.35 3.43v38.83l-9.35-2.62zm12.62 3.54v-38.55l9.35 3.43v37.74l-9.35-2.62zm9.35-123.62v37.6l-9.35-4.41v-38.4l9.35 5.21zm-12.61-7.04v38.68l-9.35-4.41v-39.49l9.35 5.22zm-12.62-7.04v39.77l-9.35-4.41v-40.57l9.35 5.21zm-12.61-7.03v40.85l-9.35-4.41v-41.66l9.35 5.22zm0-47.86v40.76l-9.35-5.31v-41.57l9.35 6.12zm41.1 64.09v-37.22l7.28 4.76v36.6l-7.28-4.14zm-37.84-21.48v-40.48l9.35 6.11v39.68l-9.35-5.31zm12.61 7.16v-39.4l9.35 6.11v38.59l-9.35-5.3zm12.62 7.16v-38.31l9.35 6.11v37.51l-9.35-5.31zm12.61 51.18v-37.32l7.28 4.06v36.69l-7.28-3.43zm-3.26-127.61v37.4l-9.35-6.2v-38.21l9.35 7.01zm-12.61-9.45v38.49l-9.35-6.2v-39.29l9.35 7zm-12.62-9.45v39.57l-9.35-6.2v-40.38l9.35 7.01zm-12.61-9.45v40.66l-9.35-6.2v-41.46l9.35 7zm0-47.85v40.54l-9.35-7.1v-41.35l9.35 7.91zm0-47.84v40.42l-9.35-7.99v-41.22l9.35 8.79zm0-47.84v40.29l-9.35-8.88v-41.09l9.35 9.68zm0-47.84v40.15l-9.35-9.78v-40.96l9.35 10.59zm0-47.84v40.01l-9.35-10.67v-40.81l9.35 11.47zm0-47.83v39.86l-9.35-11.57v-40.66l9.35 12.37zm0-33.21v25.09l-9.35-12.46v-25.62l9.35 12.99zm0-31.25v8.36l-9.35-13.35v-8.58l9.35 13.57zm41.1 67.05v-7.38l7.28 10.56v7.21l-7.28-10.39zm-37.84-54.04v-8.28l9.35 13.58v8.06l-9.35-13.36zm12.61 18.01v-7.98l9.35 13.58v7.76l-9.35-13.36zm12.62 18.02v-7.68l9.35 13.58v7.46l-9.35-13.36zm12.61 62.06v-22.76l7.28 10.11v22.34l-7.28-9.69zm-37.84-50.41v-24.91l9.35 12.99v24.38l-9.35-12.46zm12.61 16.8v-24.19l9.35 12.99v23.66l-9.35-12.46zm12.62 16.81v-23.47l9.35 12.99v22.94l-9.35-12.46zm12.61 60.85v-36.32l7.28 9.63v35.7l-7.28-9.01zm-37.84-46.79v-39.58l9.35 12.37v38.77l-9.35-11.56zm12.61 15.6v-38.5l9.35 12.37v37.69l-9.35-11.56zm12.62 15.6v-37.41l9.35 12.37v36.6l-9.35-11.56zm12.61 59.65v-36.47l7.28 8.93v35.85l-7.28-8.31zm-37.84-43.19v-39.73l9.35 11.48v38.92l-9.35-10.67zm12.61 14.4v-38.64l9.35 11.48v37.84l-9.35-10.68zm12.62 14.39v-37.56l9.35 11.48v36.75l-9.35-10.67zm12.61 58.44v-36.61l7.28 8.24v35.99l-7.28-7.62zm-37.84-39.56v-39.87l9.35 10.58v39.07l-9.35-9.78zm12.61 13.19v-38.79l9.35 10.58v37.98l-9.35-9.77zm12.62 13.19v-37.7l9.35 10.58v36.89l-9.35-9.77zm12.61 57.23v-36.75l7.28 7.54v36.13l-7.28-6.92zm-37.84-35.95v-40.01l9.35 9.69v39.2l-9.35-8.88zm12.61 11.98v-38.92l9.35 9.69v38.12l-9.35-8.89zm12.62 11.99v-37.84l9.35 9.69v37.03l-9.35-8.88zm12.61 56.02v-36.88l7.28 6.84v36.26l-7.28-6.22zm-37.84-32.33v-40.14l9.35 8.79v39.33l-9.35-7.98zm12.61 10.78v-39.05l9.35 8.79v38.25l-9.35-7.99zm12.62 10.77v-37.97l9.35 8.79v37.16l-9.35-7.98zm12.61 54.82v-37.01l7.28 6.15v36.38l-7.28-5.52zm-37.84-28.71v-40.26l9.35 7.9v39.46l-9.35-7.1zm12.61 9.57v-39.18l9.35 7.9v38.37l-9.35-7.09zm12.62 9.57v-38.09l9.35 7.9v37.29l-9.35-7.1zm12.61 53.6v-37.12l7.28 5.45v36.49l-7.28-4.82zm7.28 227.79v36.92l-7.28-0.65v-37.55l7.28 1.28zm-10.54-1.85v37.83l-9.35-0.84v-38.63l9.35 1.64zm-12.61-2.22v38.91l-9.35-0.84v-39.72l9.35 1.65zm-12.62-2.21v40l-9.35-0.84v-40.8l9.35 1.64zm-12.61-2.21v41.08l-9.35-0.84v-41.89l9.35 1.65zm48.38 51.76v36.94l-7.28 0.05v-37.56l7.28 0.57zm-10.54-0.85v37.84l-9.35 0.06v-38.65l9.35 0.75zm-12.61-1v38.93l-9.35 0.06v-39.74l9.35 0.75zm-12.62-1.01v40.02l-9.35 0.06v-40.82l9.35 0.74zm-12.61-1.01v41.1l-9.35 0.06v-41.91l9.35 0.75zm48.38 393.66v36.35l-7.28 6.31v-36.98l7.28-5.68zm-10.54 8.23v37.26l-9.35 8.1v-38.06l9.35-7.3zm-12.61 9.85v38.34l-9.35 8.1v-39.15l9.35-7.29zm-12.62 9.84v39.43l-9.35 8.1v-40.23l9.35-7.3zm-12.61 9.85v40.52l-9.35 8.1v-41.32l9.35-7.3zm3.26-9.85v-40.35l9.35-6.41v39.55l-9.35 7.21zm12.61-9.72v-39.27l9.35-6.41v38.46l-9.35 7.22zm12.62-9.73v-38.18l9.35-6.41v37.38l-9.35 7.21zm12.61-9.72v-37.09l7.28-4.99v36.47l-7.28 5.61zm-41.1-8.94v40.63l-9.35 7.21v-41.44l9.35-6.4zm0-47.96v40.74l-9.35 6.32v-41.54l9.35-5.52zm41.1-30.95v-37.3l7.28-3.59v36.67l-7.28 4.22zm-3.26 8.65v37.48l-9.35 6.32v-38.29l9.35-5.51zm-12.61 7.43v38.57l-9.35 6.32v-39.37l9.35-5.52zm-12.62 7.43v39.65l-9.35 6.32v-40.46l9.35-5.51zm28.49 20.41v-37.2l7.28-4.29v36.57l-7.28 4.92zm-3.26-79.61v37.58l-9.35 5.42v-38.38l9.35-4.62zm-12.61 6.23v38.66l-9.35 5.42v-39.47l9.35-4.61zm-12.62 6.23v39.75l-9.35 5.42v-40.55l9.35-4.62zm-12.61 6.23v40.83l-9.35 5.42v-41.64l9.35-4.61zm41.1-26.93v-37.38l7.28-2.9v36.75l-7.28 3.53zm-3.26-36.09v37.66l-9.35 4.53v-38.47l9.35-3.72zm-12.61 5.03v38.75l-9.35 4.53v-39.55l9.35-3.73zm-12.62 5.02v39.83l-9.35 4.53v-40.64l9.35-3.72zm-12.61 5.02v40.92l-9.35 4.53v-41.72l9.35-3.73zm3.26-8.22v-40.71l9.35-2.83v39.9l-9.35 3.64zm12.61-4.9v-39.62l9.35-2.83v38.82l-9.35 3.63zm12.62-4.9v-38.54l9.35-2.83v37.73l-9.35 3.64zm12.61-4.9v-37.45l7.28-2.2v36.82l-7.28 2.83zm-41.1-25.02v40.99l-9.35 3.64v-41.79l9.35-2.84zm3.26-7.84v-40.76l9.35-1.94v39.96l-9.35 2.74zm12.61-3.7v-39.67l9.35-1.94v38.87l-9.35 2.74zm12.62-3.7v-38.59l9.35-1.94v37.79l-9.35 2.74zm12.61-3.69v-37.5l7.28-1.51v36.88l-7.28 2.13zm-41.1-29v41.04l-9.35 2.74v-41.85l9.35-1.93zm41.1-14.96v-37.54l7.28-0.81v36.91l-7.28 1.44zm-3.26-37.17v37.82l-9.35 1.85v-38.63l9.35-1.04zm-12.61 1.4v38.91l-9.35 1.85v-39.71l9.35-1.05zm-12.62 1.4v39.99l-9.35 1.85v-40.8l9.35-1.04zm-12.61 1.41v41.08l-9.35 1.85v-41.88l9.35-1.05zm41.1-11v-37.56l7.28-0.11v36.94l-7.28 0.73zm-3.26-37.51v37.84l-9.35 0.95v-38.65l9.35-0.14zm-12.61 0.2v38.93l-9.35 0.95v-39.73l9.35-0.15zm-12.62 0.2v40.01l-9.35 0.95v-40.82l9.35-0.14zm-12.61 0.2v41.1l-9.35 0.95v-41.9l9.35-0.15zm48.38 389.1v36.23l-7.28 7v-36.85l7.28-6.38zm-10.54 9.23v37.13l-9.35 9v-37.94l9.35-8.19zm-12.61 11.05v38.22l-9.35 9v-39.02l9.35-8.2zm-12.62 11.06v39.31l-9.35 9v-40.11l9.35-8.2zm-12.61 11.05v40.39l-9.35 9v-41.19l9.35-8.2zm48.38 87.65v22.61l-7.28 8.88v-23.02l7.28-8.47zm-10.54 12.26v23.21l-9.35 11.41v-23.74l9.35-10.88zm-12.61 14.67v23.92l-9.35 11.41v-24.46l9.35-10.87zm-12.62 14.67v24.64l-9.35 11.41v-25.17l9.35-10.88zm-12.61 14.67v25.36l-9.35 11.41v-25.89l9.35-10.88zm3.26-11.62v-39.84l9.35-9.98v39.03l-9.35 10.79zm12.61-14.55v-38.75l9.35-9.98v37.95l-9.35 10.78zm12.62-14.55v-37.67l9.35-9.98v36.86l-9.35 10.79zm12.61-14.55v-36.58l7.28-7.77v35.95l-7.28 8.4zm-41.1 7.3v40.12l-9.35 10.79v-40.92l9.35-9.99zm3.26-11.17v-39.98l9.35-9.09v39.17l-9.35 9.9zm12.61-13.35v-38.89l9.35-9.09v38.09l-9.35 9.89zm12.62-13.34v-37.81l9.35-9.09v37l-9.35 9.9zm12.61-13.34v-36.72l7.28-7.07v36.09l-7.28 7.7zm-41.1 3.22v40.26l-9.35 9.89v-41.06l9.35-9.09zm3.26 147.96v-8.13l9.35-11.77v7.92l-9.35 11.98zm12.61-16.17v-7.84l9.35-11.77v7.63l-9.35 11.98zm12.62-16.16v-7.55l9.35-11.77v7.34l-9.35 11.98zm12.61-16.16v-7.26l7.28-9.16v7.1l-7.28 9.32zm-41.1 44.46v8.2l-9.35 11.98v-8.42l9.35-11.76z"/>
 <rect class="st1" x="1433.4" y="767.56" width="19.56" height="1503.2"/>
 <polygon class="st3" points="1462.8 2261.2 1453 2270.7 1453 767.56 1462.8 780.89"/>
</svg>
